<svg width="98" height="122" viewBox="0 0 98 122" fill="none" xmlns="http://www.w3.org/2000/svg">
<path d="M23.9555 14.3329V0.5H32.3037V6.32439H44.8259V0.5H53.1741V6.32439H65.6963V0.5H74.0445V14.3329H23.9555Z" fill="#D8AE5E"/>
<path fill-rule="evenodd" clip-rule="evenodd" d="M0.609662 22.0854C0.609662 22.0854 0.3629 34.2296 0.609696 50.0895C0.631382 51.4831 0.648127 52.8996 0.665081 54.3338C1.01687 84.0918 1.4591 121.5 48.0093 121.5C96.803 121.5 97.5 95.5962 97.5 46.589L97.5 22.0854H0.609662ZM92.3549 27.2538H5.68508C5.67663 28.1293 5.66867 29.1054 5.66212 30.1719C5.63145 35.1622 5.63147 42.1247 5.75415 50.0087C5.77552 51.3815 5.79284 52.7621 5.81022 54.1473C5.99066 68.5284 6.17737 83.4092 10.955 95.2144C13.4889 101.475 17.2419 106.621 22.8687 110.258C28.5279 113.916 36.523 116.332 48.0093 116.332C59.8245 116.332 68.1901 114.752 74.1806 111.99C80.0082 109.302 83.8207 105.393 86.4505 100.111C89.1646 94.6587 90.6988 87.5756 91.504 78.5095C92.3077 69.46 92.3549 58.8893 92.3549 46.589L92.3549 27.2538Z" fill="url(#paint0_linear_392_161)"/>
<path d="M31.6732 70.7286H16.3892C16.3892 70.7286 16.4848 80.9591 19.446 88.6848C22.4073 96.4105 31.6732 103.563 31.6732 103.563V70.7286Z" fill="#F2CB80"/>
<path d="M58.7605 56.8957H39.2395V105.691H58.7605V56.8957Z" fill="url(#paint1_radial_392_161)"/>
<path d="M82.2161 43.5188H66.3268V103.563C66.3268 103.563 82.2161 99.689 82.2161 79.3515V43.5188Z" fill="#D8AE5E"/>
<defs>
<linearGradient id="paint0_linear_392_161" x1="97.5" y1="-1.87256" x2="-18.5328" y2="92.0571" gradientUnits="userSpaceOnUse">
<stop stop-color="#DEB25F"/>
<stop offset="1" stop-color="#F3CC81"/>
</linearGradient>
<radialGradient id="paint1_radial_392_161" cx="0" cy="0" r="1" gradientUnits="userSpaceOnUse" gradientTransform="translate(97.5001 0.499989) rotate(128.718) scale(155.081 87.7925)">
<stop stop-color="#D8AE5E"/>
<stop offset="1" stop-color="#F4CD83"/>
</radialGradient>
</defs>
</svg>
