<svg width="34" height="24" viewBox="0 0 34 24" fill="none" xmlns="http://www.w3.org/2000/svg">
<path d="M3.41413 23H0.0861251V0.599998H14.1981V3.672H3.41413V10.616H13.2701V13.624H3.41413V23ZM25.8456 8.12C30.1336 8.12 33.5256 11.48 33.5256 15.736C33.5256 20.024 30.1336 23.352 25.8456 23.352C24.1176 23.352 22.4216 22.744 21.1096 21.656V23H18.0696V0.599998H21.1096V9.816C22.4216 8.728 24.1176 8.12 25.8456 8.12ZM25.7176 20.408C28.3736 20.408 30.3256 18.424 30.3256 15.736C30.3256 13.048 28.3736 11.064 25.7176 11.032C23.0936 11.064 21.1096 13.048 21.1096 15.736C21.1096 18.424 23.0936 20.408 25.7176 20.408Z" fill="white"/>
</svg>
