<svg width="205" height="40" viewBox="0 0 205 40" fill="none" xmlns="http://www.w3.org/2000/svg">
<path d="M194.934 9.39613H191.373C190.725 9.39613 190.2 9.91839 190.2 10.5626V14.1031C190.2 14.7473 190.725 15.2696 191.373 15.2696H194.934C195.581 15.2696 196.107 14.7473 196.107 14.1031V10.5626C196.107 9.91839 195.581 9.39613 194.934 9.39613Z" fill="#EB5B4F"/>
<path d="M194.934 17.3366H191.373C190.725 17.3366 190.2 17.8588 190.2 18.5031V22.0435C190.2 22.6878 190.725 23.21 191.373 23.21H194.934C195.581 23.21 196.107 22.6878 196.107 22.0435V18.5031C196.107 17.8588 195.581 17.3366 194.934 17.3366Z" fill="#EB5B4F"/>
<path d="M194.934 25.6249H191.373C190.725 25.6249 190.2 26.1472 190.2 26.7914V30.3319C190.2 30.9761 190.725 31.4984 191.373 31.4984H194.934C195.581 31.4984 196.107 30.9761 196.107 30.3319V26.7914C196.107 26.1472 195.581 25.6249 194.934 25.6249Z" fill="#EB5B4F"/>
<path d="M203.105 9.37566H199.544C198.896 9.37566 198.371 9.89793 198.371 10.5422V14.0826C198.371 14.7269 198.896 15.2491 199.544 15.2491H203.105C203.753 15.2491 204.278 14.7269 204.278 14.0826V10.5422C204.278 9.89793 203.753 9.37566 203.105 9.37566Z" fill="#EB5B4F"/>
<path d="M0.722229 31.2323V9.86682H3.91243V13.8166H4.11825C4.54282 12.4648 5.42431 11.3006 6.61337 10.5211C7.80243 9.74156 9.22594 9.39475 10.6427 9.53938C12.593 9.43313 14.5095 10.0781 15.994 11.3403C16.6962 12.0105 17.2438 12.8241 17.5991 13.725C17.9545 14.6259 18.1091 15.5928 18.0522 16.5589V31.2323H14.7591V17.5821C14.8672 16.1665 14.4169 14.7646 13.5036 13.6733C13.0373 13.2083 12.4768 12.8473 11.8593 12.6144C11.2418 12.3816 10.5815 12.2821 9.92236 12.3226C9.06735 12.2821 8.21511 12.447 7.4377 12.8032C6.6603 13.1594 5.9806 13.6965 5.45608 14.3691C4.41491 15.771 3.8719 17.4771 3.91243 19.2193V31.1914L0.722229 31.2323Z" fill="#0C0F24"/>
<path d="M33.3035 31.6007C32.0891 31.6679 30.8742 31.4783 29.7389 31.0444C28.6036 30.6105 27.5737 29.9421 26.7172 29.0835C25.0517 27.2202 24.1936 24.7783 24.3297 22.2891V18.8305C24.2091 16.3486 25.0824 13.9202 26.7584 12.077C27.5709 11.239 28.5513 10.58 29.6363 10.1429C30.7213 9.70573 31.8865 9.50012 33.0565 9.53938C34.2297 9.49851 35.3985 9.70329 36.4871 10.1405C37.5756 10.5776 38.5596 11.2374 39.3751 12.077C40.2198 12.9832 40.8764 14.0462 41.3072 15.2051C41.7381 16.3639 41.9348 17.5959 41.8861 18.8305V21.45H27.4788V22.5347C27.4124 24.1547 27.9471 25.7425 28.9813 26.9961C29.5103 27.5864 30.166 28.051 30.8998 28.3556C31.6337 28.6602 32.427 28.7971 33.2211 28.7561C34.3211 28.7982 35.4112 28.5361 36.3702 27.9988C37.1187 27.6108 37.6975 26.9625 37.9961 26.1775H41.4128C41.2869 26.817 41.0426 27.4276 40.6924 27.9784C40.2685 28.6258 39.7559 29.2113 39.1693 29.7179C38.428 30.3253 37.5753 30.784 36.6583 31.0686C35.5758 31.4231 34.4432 31.6028 33.3035 31.6007ZM27.4788 18.9738H38.4695V18.6054C38.4944 17.4704 38.2623 16.3443 37.7903 15.3105C37.4078 14.4015 36.7632 13.6254 35.938 13.0798C35.0681 12.5633 34.0694 12.3009 33.0565 12.3226C32.3077 12.2924 31.5614 12.4272 30.8711 12.7173C30.1808 13.0074 29.5636 13.4457 29.0636 14.0008C27.9619 15.2773 27.3947 16.9254 27.4788 18.6054V18.9738Z" fill="#0C0F24"/>
<path d="M49.1927 9.86682V4.50498H52.4241V9.86682H57.302V12.6091H52.4241V25.3589C52.3843 26.0567 52.4966 26.7548 52.7534 27.4054C52.8537 27.6338 53.0006 27.8391 53.1849 28.0082C53.3691 28.1773 53.5866 28.3065 53.8237 28.3877C54.4908 28.5864 55.1858 28.6762 55.8819 28.6537C56.4371 28.6853 56.9937 28.6853 57.549 28.6537V31.2937C56.7255 31.4227 55.892 31.4775 55.0586 31.4574C54.086 31.4608 53.1172 31.3369 52.1771 31.0891C51.4649 30.8997 50.831 30.4914 50.3659 29.9226C49.9313 29.3722 49.635 28.7268 49.5015 28.0398C49.303 27.1596 49.1995 26.2609 49.1927 25.3589V12.6091H46.0025V9.86682H49.1927Z" fill="#0C0F24"/>
<path d="M70.8861 9.53938C72.3273 9.4668 73.7583 9.81541 75.0025 10.5422C75.9722 11.1368 76.723 12.0268 77.143 13.0798H77.2871V1.98778H80.5185V31.2323H77.4723V27.8556H77.2871C76.9339 28.9326 76.2035 29.8476 75.2289 30.4342C73.8636 31.2387 72.284 31.6099 70.7009 31.4984C69.586 31.5424 68.4744 31.3519 67.4387 30.9393C66.4031 30.5267 65.4667 29.9013 64.6909 29.104C63.1451 27.3591 62.3473 25.082 62.4681 22.7598V18.3189C62.3676 15.9826 63.1871 13.6993 64.7527 11.9543C65.5438 11.1416 66.5001 10.5059 67.5576 10.0895C68.6152 9.67313 69.7499 9.48558 70.8861 9.53938ZM71.3183 12.384C70.5413 12.3508 69.7668 12.4938 69.0537 12.8023C68.3405 13.1108 67.7072 13.5766 67.2019 14.1645C66.0927 15.6091 65.5512 17.4063 65.6789 19.2193V22.0231C65.5653 23.8252 66.1138 25.6069 67.2225 27.037C67.7316 27.6217 68.365 28.0866 69.0769 28.3981C69.7888 28.7095 70.5614 28.8598 71.3389 28.8379C72.1335 28.8731 72.9263 28.7357 73.6621 28.4353C74.3978 28.1349 75.0589 27.6787 75.5994 27.0984C76.7063 25.7926 77.2728 24.1174 77.1842 22.4119V18.3189C77.2161 17.531 77.0835 16.7451 76.7949 16.0107C76.5062 15.2763 76.0677 14.6093 75.5069 14.0517C74.9462 13.4942 74.2754 13.0582 73.5368 12.7711C72.7982 12.4841 72.0078 12.3523 71.2154 12.384H71.3183Z" fill="#0C0F24"/>
<path d="M95.9961 31.6007C94.7817 31.6679 93.5668 31.4783 92.4315 31.0444C91.2962 30.6105 90.2664 29.9421 89.4099 29.0835C87.7443 27.2202 86.8863 24.7783 87.0224 22.2891V18.8305C86.9017 16.3486 87.775 13.9202 89.451 12.077C91.1435 10.4503 93.4054 9.54099 95.7594 9.54099C98.1134 9.54099 100.375 10.4503 102.068 12.077C103.744 13.9202 104.617 16.3486 104.496 18.8305V21.45H90.2537V22.5347C90.1873 24.1547 90.7221 25.7425 91.7562 26.9961C92.2853 27.5864 92.941 28.051 93.6748 28.3556C94.4087 28.6602 95.2019 28.7971 95.9961 28.756C97.096 28.7982 98.1861 28.5361 99.1451 27.9988C99.8986 27.6172 100.479 26.9666 100.771 26.1775H104.188C104.062 26.8169 103.818 27.4276 103.467 27.9784C103.043 28.6258 102.531 29.2113 101.944 29.7179C101.203 30.3253 100.35 30.784 99.4333 31.0686C98.3246 31.4319 97.1634 31.6116 95.9961 31.6007ZM90.2537 18.9738H101.244V18.6054C101.269 17.4704 101.037 16.3443 100.565 15.3105C100.161 14.3904 99.4864 13.613 98.6306 13.0798C97.7607 12.5633 96.7621 12.3009 95.7491 12.3226C95.0003 12.2924 94.254 12.4272 93.5638 12.7173C92.8735 13.0074 92.2562 13.4457 91.7562 14.0008C90.6842 15.2895 90.1468 16.9363 90.2537 18.6054V18.9738Z" fill="#0C0F24"/>
<path d="M109.807 15.9449C109.754 15.0246 109.932 14.1058 110.323 13.2702C110.715 12.4347 111.308 11.7084 112.05 11.1561C113.687 10.0363 115.642 9.46951 117.628 9.53938C118.674 9.52343 119.717 9.67546 120.715 9.98961C121.581 10.2364 122.392 10.6463 123.103 11.1971C123.748 11.7001 124.269 12.3434 124.626 13.0777C124.983 13.812 125.166 14.6178 125.161 15.4333H122.156C122.094 14.8822 121.896 14.3549 121.579 13.8984C121.173 13.3623 120.634 12.9394 120.015 12.6705C119.226 12.318 118.369 12.1433 117.504 12.1589C116.703 12.1472 115.907 12.286 115.158 12.5682C114.514 12.7935 113.955 13.2073 113.553 13.7552C113.158 14.2884 112.948 14.9349 112.956 15.597C112.946 16.046 113.052 16.49 113.264 16.8863C113.441 17.208 113.679 17.4928 113.964 17.7254C114.318 17.977 114.706 18.1769 115.117 18.3189C115.525 18.4734 115.945 18.5966 116.372 18.6873L117.813 18.9738H118.039C118.093 18.9566 118.151 18.9566 118.204 18.9738L120.159 19.3421C120.694 19.4854 121.291 19.6491 121.909 19.8538C122.453 20.033 122.972 20.2806 123.452 20.5905C123.877 20.8916 124.27 21.2344 124.626 21.6138C124.999 22.0248 125.273 22.5146 125.428 23.0463C125.599 23.6382 125.683 24.2518 125.675 24.8677C125.718 25.8047 125.53 26.738 125.129 27.5866C124.727 28.4353 124.123 29.1739 123.37 29.7384C121.568 30.9954 119.394 31.6151 117.196 31.4984C115.183 31.5968 113.193 31.0517 111.515 29.943C110.81 29.4638 110.24 28.814 109.859 28.0548C109.477 27.2957 109.296 26.4524 109.333 25.6044H112.503C112.812 27.6509 114.417 28.797 117.34 28.797C118.33 28.8257 119.316 28.6588 120.242 28.3058C120.919 28.0808 121.509 27.6516 121.929 27.0779C122.283 26.5444 122.462 25.9156 122.444 25.277C122.451 24.8373 122.352 24.4023 122.156 24.0082C121.973 23.6788 121.728 23.3871 121.435 23.1486C121.067 22.8748 120.657 22.6607 120.221 22.5142C119.753 22.3343 119.271 22.1906 118.78 22.0845L117.051 21.7161L114.705 21.2659C113.999 21.0961 113.31 20.8632 112.647 20.57C112.039 20.3333 111.481 19.9863 111 19.5468C110.583 19.124 110.254 18.6232 110.033 18.0733C109.825 17.384 109.748 16.6622 109.807 15.9449Z" fill="#0C0F24"/>
<path d="M131.582 3.21568C131.573 2.89354 131.63 2.57292 131.751 2.2737C131.871 1.97447 132.052 1.70302 132.282 1.47616C132.511 1.25538 132.782 1.08199 133.078 0.96606C133.375 0.850128 133.692 0.793958 134.011 0.80081C134.332 0.792363 134.652 0.849051 134.95 0.96742C135.249 1.08579 135.52 1.26336 135.747 1.48931C135.974 1.71525 136.153 1.98485 136.272 2.28165C136.391 2.57846 136.448 2.89626 136.44 3.21568C136.447 3.65136 136.341 4.08151 136.131 4.46405C135.922 4.82191 135.615 5.11304 135.246 5.30312C134.862 5.49342 134.439 5.59155 134.011 5.58963C133.691 5.59379 133.373 5.53439 133.076 5.41491C132.779 5.29544 132.509 5.11828 132.282 4.89382C132.055 4.67779 131.875 4.41699 131.754 4.12806C131.634 3.83912 131.575 3.52839 131.582 3.21568ZM132.447 31.2323V9.86682H135.658V31.2323H132.447Z" fill="#0C0F24"/>
<path d="M151.197 36.41C151.999 36.4718 152.806 36.3732 153.57 36.1202C154.333 35.8671 155.038 35.4646 155.643 34.9365C156.161 34.3915 156.563 33.7479 156.824 33.0446C157.086 32.3412 157.202 31.5926 157.166 30.8435V27.5691H156.939C156.641 28.2082 156.214 28.7794 155.684 29.2472C155.089 29.7868 154.388 30.1979 153.626 30.4547C152.761 30.7648 151.848 30.9173 150.929 30.9049C149.423 30.924 147.937 30.565 146.607 29.8612C145.301 29.1566 144.228 28.0902 143.52 26.7914C142.723 25.3517 142.325 23.7273 142.367 22.0845V18.4007C142.347 17.1422 142.571 15.8916 143.026 14.717C143.41 13.6627 144.013 12.7005 144.796 11.8929C145.57 11.1313 146.495 10.5388 147.513 10.1533C148.614 9.72472 149.789 9.51609 150.971 9.53938C152.37 9.50616 153.749 9.87571 154.943 10.6036C155.914 11.1862 156.682 12.0503 157.145 13.0798H157.289V9.86682H160.335V30.7412C160.422 31.9207 160.246 33.1048 159.819 34.2086C159.392 35.3125 158.725 36.3088 157.865 37.1263C155.914 38.612 153.484 39.3396 151.032 39.1728C148.953 39.3318 146.879 38.7912 145.146 37.6379C144.479 37.1614 143.919 36.5508 143.505 35.8457C143.09 35.1406 142.828 34.3567 142.738 33.5449H146.093C146.19 33.9776 146.381 34.3844 146.651 34.7375C146.92 35.0906 147.264 35.3819 147.657 35.5914C148.728 36.2112 149.961 36.4964 151.197 36.41ZM151.506 12.384C150.652 12.368 149.804 12.5282 149.015 12.8547C148.29 13.1677 147.644 13.6359 147.122 14.2259C146.587 14.8628 146.188 15.6007 145.949 16.3952C145.655 17.3074 145.516 18.2618 145.537 19.2193V21.2659C145.454 23.044 146.058 24.7864 147.225 26.1365C147.761 26.7461 148.427 27.2294 149.175 27.5515C149.922 27.8736 150.733 28.0264 151.547 27.9988C152.324 28.0352 153.1 27.8935 153.813 27.5849C154.527 27.2762 155.16 26.8087 155.663 26.2184C156.653 25.0291 157.179 23.5254 157.145 21.9821V18.544C157.179 16.9591 156.63 15.4164 155.601 14.2054C155.11 13.6044 154.483 13.1265 153.771 12.8102C153.06 12.4938 152.284 12.3479 151.506 12.384Z" fill="#0C0F24"/>
<path d="M167.436 31.2323V9.86682H170.647V13.8166H170.853C171.256 12.4518 172.133 11.2733 173.327 10.4903C174.522 9.70724 175.957 9.37035 177.377 9.53938C179.327 9.43736 181.242 10.0818 182.728 11.3403C183.427 12.0129 183.973 12.8269 184.328 13.7272C184.683 14.6276 184.839 15.5932 184.787 16.5589V31.2323H181.494V17.5821C181.594 16.164 181.136 14.7626 180.217 13.6733C179.751 13.2083 179.191 12.8473 178.573 12.6144C177.956 12.3816 177.295 12.2821 176.636 12.3226C175.782 12.2855 174.931 12.4519 174.154 12.8079C173.377 13.1638 172.697 13.6991 172.17 14.3691C171.135 15.7729 170.599 17.4793 170.647 19.2193V31.1914L167.436 31.2323Z" fill="#0C0F24"/>
</svg>
