<svg width="1554" height="204" viewBox="0 0 1554 204" fill="none" xmlns="http://www.w3.org/2000/svg">
<path d="M104.306 200H55.5861V47.4001H0.146118V4.00013H159.746V47.4001H104.306V200Z" fill="#0C0F24"/>
<path d="M216.372 203.08C173.252 203.08 144.412 171.44 144.412 135.04C144.412 98.6401 173.252 67.0001 216.372 67.0001C259.772 67.0001 288.892 99.7601 285.532 146.52H188.932C193.132 157.72 202.092 164.72 216.372 165C227.292 164.72 237.092 159.96 241.852 152.12L274.612 175.64C262.012 192.16 241.852 203.08 216.372 203.08ZM189.772 120.76H243.532C239.052 111.24 229.252 103.96 216.372 103.68C202.932 103.96 193.412 111.24 189.772 120.76Z" fill="#0C0F24"/>
<path d="M350.052 203.08C319.252 203.08 303.852 186.28 299.932 168.08L336.612 156.04C338.012 162.48 343.052 166.4 350.892 166.4C357.332 166.4 361.812 163.88 361.812 159.68C361.812 155.76 358.732 153.24 352.292 152.4C322.612 147.92 303.292 137.28 303.292 108.16C303.292 86.0401 321.772 67.0001 351.452 67.0001C379.452 67.0001 394.012 82.1201 398.492 99.2001L362.652 108.72C361.812 105.08 358.452 101.72 351.732 101.72C346.412 101.72 343.052 104.52 343.052 107.88C343.052 111.52 345.852 114.04 352.572 114.88C387.292 119.92 402.692 133.08 402.692 157.44C402.692 183.2 383.652 203.08 350.052 203.08Z" fill="#0C0F24"/>
<path d="M514.476 201.96H485.915C452.875 201.96 436.915 185.72 436.915 156.04V105.08H415.355V74.0001H416.475C431.875 74.0001 446.435 58.0401 446.435 39.8401V39.2801H478.915V70.0801H514.476V105.08H478.915V148.48C478.915 159.96 485.355 163.6 494.315 163.6H514.476V201.96Z" fill="#0C0F24"/>
<path d="M559.227 48.8001C544.387 48.8001 533.747 38.4401 533.747 25.0001C533.747 11.2801 544.387 0.640137 559.227 0.640137C574.627 0.640137 584.987 11.2801 584.987 25.0001C584.987 38.4401 574.627 48.8001 559.227 48.8001ZM580.507 200H538.507V70.0801H580.507V200Z" fill="#0C0F24"/>
<path d="M649.232 200H607.232V70.0801H647.552V76.5201C653.152 71.7601 663.232 67.0001 677.512 67.0001C695.712 67.0001 707.752 76.2401 713.072 81.5601C717.272 77.6401 729.592 67.0001 751.712 67.0001C783.632 67.0001 808.552 88.8401 808.552 117.12V200H766.552V125.8C766.552 115.16 760.672 105.08 747.232 105.08C736.032 105.08 727.912 114.04 727.912 125.8V200H685.912V125.8C685.912 115.16 680.592 105.08 667.712 105.08C656.512 105.08 649.232 114.04 649.232 125.8V200Z" fill="#0C0F24"/>
<path d="M902.973 203.08C859.853 203.08 831.013 171.44 831.013 135.04C831.013 98.6401 859.853 67.0001 902.973 67.0001C946.093 67.0001 974.933 98.6401 974.933 135.04C974.933 171.44 946.093 203.08 902.973 203.08ZM902.973 163.88C920.333 163.6 931.533 150.72 931.533 135.04C931.533 119.36 920.333 106.48 902.973 106.2C885.613 106.48 874.413 119.36 874.413 135.04C874.413 150.72 885.613 163.6 902.973 163.88Z" fill="#0C0F24"/>
<path d="M1040.79 200H998.795V70.0801H1039.11V76.5201C1044.71 71.7601 1055.35 67.0001 1069.91 67.0001C1098.75 67.0001 1121.43 88.8401 1121.43 117.12V200H1079.43V125.8C1079.43 115.16 1073.55 105.08 1060.11 105.08C1048.91 105.08 1040.79 112.92 1040.79 125.8V200Z" fill="#0C0F24"/>
<path d="M1167.63 48.8001C1152.79 48.8001 1142.15 38.4401 1142.15 25.0001C1142.15 11.2801 1152.79 0.640137 1167.63 0.640137C1183.03 0.640137 1193.39 11.2801 1193.39 25.0001C1193.39 38.4401 1183.03 48.8001 1167.63 48.8001ZM1188.91 200H1146.91V70.0801H1188.91V200Z" fill="#0C0F24"/>
<path d="M1309.15 74.2801V70.0801H1351.15V200H1309.15V195.8C1298.79 200.56 1287.87 203.08 1277.23 203.08C1237.47 203.08 1208.63 170.04 1208.63 135.04C1208.63 100.04 1237.47 67.0001 1277.23 67.0001C1287.87 67.0001 1298.79 69.5201 1309.15 74.2801ZM1280.59 163.88C1297.95 163.6 1309.15 150.72 1309.15 135.04C1309.15 119.36 1297.95 106.48 1280.59 106.2C1263.23 106.48 1252.03 119.36 1252.03 135.04C1252.03 150.72 1263.23 163.6 1280.59 163.88Z" fill="#0C0F24"/>
<path d="M1436.79 201.96H1427.55C1395.91 201.96 1379.11 185.44 1379.11 151.28V4.00013H1421.11V150.16C1421.11 157.72 1425.59 162.76 1436.79 162.76V201.96Z" fill="#0C0F24"/>
<path d="M1500.95 203.08C1470.15 203.08 1454.75 186.28 1450.83 168.08L1487.51 156.04C1488.91 162.48 1493.95 166.4 1501.79 166.4C1508.23 166.4 1512.71 163.88 1512.71 159.68C1512.71 155.76 1509.63 153.24 1503.19 152.4C1473.51 147.92 1454.19 137.28 1454.19 108.16C1454.19 86.0401 1472.67 67.0001 1502.35 67.0001C1530.35 67.0001 1544.91 82.1201 1549.39 99.2001L1513.55 108.72C1512.71 105.08 1509.35 101.72 1502.63 101.72C1497.31 101.72 1493.95 104.52 1493.95 107.88C1493.95 111.52 1496.75 114.04 1503.47 114.88C1538.19 119.92 1553.59 133.08 1553.59 157.44C1553.59 183.2 1534.55 203.08 1500.95 203.08Z" fill="#0C0F24"/>
</svg>
